<?xml version="1.0" encoding="UTF-8"?>
<svg id="Capa_2" data-name="Capa 2" xmlns="http://www.w3.org/2000/svg" viewBox="0 0 130.98 157.31">
  <defs>
    <style>
      .cls-1 {
        fill: #1d1d1b;
      }
    </style>
  </defs>
  <g id="Capa_1-2" data-name="Capa 1">
    <path class="cls-1" d="M122.75,81.33c-5.49-5.87-15.05-9.36-28.69-10.46l-44.58-3.44v-26.57h46.18v-10.44h-57.42v36c-6.09-.89-10.35-2.71-12.73-5.49-2.85-3.33-4.28-9.39-4.28-18.18,0-10.71,2.19-17.86,6.56-21.43,4.37-3.57,15.08-5.36,32.13-5.36s27.63.43,33.52,1.29c5.89.86,9.99,2.35,12.29,4.48,1.56,1.44,2.69,3.66,3.39,6.64.7,2.99,1.06,7.3,1.06,12.93v3.81h18.46c.07-.82.13-1.77.17-2.83.04-1.07.06-2.59.06-4.58,0-6.8-.76-12.48-2.28-17.05-1.52-4.57-3.88-8.09-7.06-10.56-4.67-3.71-10.47-6.32-17.4-7.83-6.93-1.51-18.89-2.27-35.86-2.27h-5.89c-15.2,0-25.8.57-31.8,1.7-6.01,1.13-10.67,3.08-14.01,5.82-4.3,3.57-7.41,8.07-9.34,13.5-1.93,5.43-2.89,12.6-2.89,21.53,0,14.15,2.93,24.21,8.78,30.18,5.25,5.36,14.31,8.74,27.13,10.17v45.89h11.24v-44.97l44.36,3.22c7.34.55,12.25,2.28,14.73,5.2,2.48,2.92,3.72,10.08,3.72,21.48,0,5.63-.33,10.1-1,13.39-.67,3.3-1.71,5.63-3.12,7.01-2.52,2.54-6.38,4.38-11.56,5.51-5.19,1.13-12.49,1.7-21.91,1.7-17.35,0-28.8-.29-34.36-.88-5.56-.58-9.67-1.56-12.34-2.94-3.41-1.79-5.86-4.84-7.34-9.17-1.48-4.33-2.22-11.06-2.22-20.19v-2.88H0v7.52c0,8.65.98,15.8,2.94,21.43,1.96,5.63,5.02,10.1,9.17,13.39,4.22,3.57,9.51,6.08,15.85,7.52,6.34,1.44,17.14,2.16,32.41,2.16h8.23c17.94,0,30.3-.84,37.08-2.52,6.78-1.68,12.17-4.62,16.18-8.81,3.26-3.36,5.6-7.57,7.01-12.62,1.41-5.05,2.11-12.58,2.11-22.61,0-13.74-2.74-23.54-8.23-29.41Z"/>
  </g>
</svg>